<svg width="25" height="21" viewBox="0 0 25 21" fill="none" xmlns="http://www.w3.org/2000/svg">
<path d="M7.8625 20.3167C17.2962 20.3167 22.4562 12.5005 22.4562 5.723C22.4562 5.5005 22.4562 5.27925 22.4412 5.0605C23.4452 4.33366 24.3117 3.43376 25 2.403C24.0638 2.818 23.0707 3.0902 22.0537 3.2105C23.1246 2.56932 23.9259 1.56093 24.3088 0.372998C23.3021 0.970356 22.2009 1.39141 21.0525 1.618C20.2792 0.795205 19.2563 0.250291 18.142 0.0676288C17.0278 -0.115033 15.8844 0.0747468 14.8889 0.607584C13.8934 1.14042 13.1014 1.98659 12.6354 3.01507C12.1694 4.04356 12.0555 5.19698 12.3112 6.29675C10.272 6.19455 8.277 5.66466 6.45581 4.74146C4.63461 3.81826 3.02791 2.5224 1.74 0.937998C1.08415 2.067 0.883236 3.40352 1.17817 4.67545C1.4731 5.94738 2.24171 7.0591 3.3275 7.78425C2.51157 7.76063 1.71329 7.54112 1 7.14425V7.20925C1.00049 8.39337 1.41049 9.54088 2.1605 10.4572C2.9105 11.3735 3.95434 12.0022 5.115 12.2367C4.35976 12.4426 3.56737 12.4726 2.79875 12.3243C3.12645 13.3436 3.7646 14.235 4.62391 14.8738C5.48322 15.5125 6.52072 15.8667 7.59125 15.8868C6.52765 16.7225 5.30973 17.3403 4.00716 17.7049C2.70458 18.0695 1.3429 18.1738 0 18.0118C2.34576 19.5172 5.07524 20.3156 7.8625 20.3118" fill="#00283A"/>
</svg>
