<svg width="25" height="25" viewBox="0 0 25 25" fill="none" xmlns="http://www.w3.org/2000/svg">
<path fill-rule="evenodd" clip-rule="evenodd" d="M12.5 0C5.6 0 0 5.6 0 12.5C0 19.4 5.6 25 12.5 25C19.3875 25 25 19.4 25 12.5C25 5.6 19.3875 0 12.5 0ZM20.7562 5.7625C22.2946 7.63663 23.1459 9.98046 23.1688 12.405C22.8175 12.3375 19.2925 11.6187 15.74 12.0662C15.6587 11.89 15.59 11.7 15.51 11.51C15.2888 10.9888 15.0537 10.4736 14.805 9.965C18.7362 8.365 20.5262 6.06 20.7562 5.7625ZM12.5 1.84375C15.2125 1.84375 17.6925 2.86 19.5775 4.52875C19.3875 4.79875 17.7738 6.955 13.9775 8.37875C12.2288 5.16625 10.29 2.535 9.99125 2.12875C10.8136 1.93652 11.6555 1.84087 12.5 1.84375ZM7.95875 2.8475C9.3893 4.83039 10.7108 6.88969 11.9175 9.01625C6.9275 10.345 2.52125 10.3162 2.0475 10.3162C2.39103 8.70016 3.10326 7.18527 4.12863 5.88974C5.15399 4.59421 6.46478 3.55306 7.95875 2.8475ZM1.81625 12.5125V12.1875C2.27875 12.2 7.45625 12.2688 12.785 10.6687C13.0975 11.265 13.3813 11.875 13.6525 12.485C13.5162 12.5262 13.3675 12.5663 13.2325 12.6075C7.7275 14.3825 4.79875 19.2362 4.555 19.6437C2.7923 17.6868 1.8158 15.1463 1.81625 12.5125ZM12.5 23.1838C10.1268 23.1878 7.82083 22.3955 5.95125 20.9338C6.14125 20.54 8.31125 16.3638 14.33 14.2625C14.3575 14.25 14.3712 14.25 14.3975 14.235C15.4129 16.8543 16.1759 19.5645 16.6763 22.3288C15.3573 22.8963 13.9359 23.1873 12.5 23.1838ZM18.4513 21.3525C18.3437 20.7025 17.7738 17.5837 16.3775 13.7475C19.7262 13.2188 22.655 14.0862 23.02 14.2087C22.792 15.6501 22.2685 17.0288 21.4823 18.2581C20.696 19.4875 19.6641 20.541 18.4513 21.3525Z" fill="#00283A"/>
</svg>
