<svg width="25" height="25" viewBox="0 0 25 25" fill="none" xmlns="http://www.w3.org/2000/svg">
<path fill-rule="evenodd" clip-rule="evenodd" d="M12.5 0C5.59625 0 0 5.605 0 12.5212C0 18.0525 3.58125 22.7462 8.54875 24.4012C9.17375 24.5162 9.40125 24.13 9.40125 23.7975C9.40125 23.5013 9.39125 22.7125 9.385 21.6687C5.9075 22.425 5.17375 19.99 5.17375 19.99C4.60625 18.5425 3.78625 18.1575 3.78625 18.1575C2.65125 17.3825 3.8725 17.3975 3.8725 17.3975C5.12625 17.485 5.78625 18.6875 5.78625 18.6875C6.90125 20.6 8.7125 20.0475 9.42375 19.7275C9.53875 18.9187 9.86125 18.3675 10.2187 18.055C7.44375 17.7388 4.525 16.6637 4.525 11.8663C4.525 10.5 5.0125 9.38125 5.81125 8.50625C5.6825 8.19 5.25375 6.91625 5.93375 5.19375C5.93375 5.19375 6.98375 4.85625 9.37125 6.47625C10.391 6.19814 11.443 6.05649 12.5 6.055C13.5625 6.06 14.6312 6.19875 15.63 6.47625C18.0162 4.85625 19.0637 5.1925 19.0637 5.1925C19.7463 6.91625 19.3162 8.19 19.1887 8.50625C19.9887 9.38125 20.4737 10.5 20.4737 11.8663C20.4737 16.6763 17.55 17.735 14.7662 18.045C15.215 18.4313 15.6138 19.195 15.6138 20.3638C15.6138 22.0363 15.5988 23.3875 15.5988 23.7975C15.5988 24.1325 15.8237 24.5225 16.4587 24.4C18.9479 23.5651 21.1117 21.9691 22.6444 19.8376C24.177 17.706 25.0011 15.1466 25 12.5212C25 5.605 19.4025 0 12.5 0Z" fill="#00283A"/>
</svg>
