<svg width="365" height="92" viewBox="0 0 365 92" fill="none" xmlns="http://www.w3.org/2000/svg">
<g clip-path="url(#clip0_12_288)">
<path d="M75.9461 11.0421L71.892 6.81982L67.7186 10.9228C67.4801 11.1523 61.8117 16.7514 56.0974 24.5993C53.5292 28.124 51.3737 31.5202 49.6218 34.7879C43.1554 22.938 33.5245 12.6851 31.9469 11.0421L27.8928 6.81982L23.7194 10.9228C23.4809 11.1523 17.8125 16.7514 12.0982 24.5993C4.07247 35.6415 0 45.4721 0 53.8341C0 69.1628 12.4651 81.6369 27.7827 81.6369C36.7256 81.6369 44.6963 77.3779 49.7777 70.7875C54.8591 77.3779 62.8298 81.6369 71.7728 81.6369C87.0904 81.6369 99.5555 69.1628 99.5555 53.8341C99.5555 36.1464 78.3584 13.5571 75.9461 11.0421ZM27.7827 70.0624C18.8398 70.0624 11.5662 62.7835 11.5662 53.8341C11.5662 44.1412 21.0411 31.199 27.6818 23.6172C34.3592 31.5294 43.99 44.8755 43.99 53.8341C43.99 62.7927 36.7165 70.0624 27.7827 70.0624ZM71.7728 70.0624C62.8298 70.0624 55.5654 62.7835 55.5654 53.8341C55.5654 44.1412 65.0403 31.199 71.681 23.6172C78.3676 31.5294 87.9893 44.8755 87.9893 53.8341C87.9893 62.7927 80.7157 70.0624 71.7728 70.0624Z" fill="url(#paint0_linear_12_288)"/>
<mask id="mask0_12_288" style="mask-type:luminance" maskUnits="userSpaceOnUse" x="24" y="53" width="26" height="29">
<path d="M27.7827 70.0623C26.5261 70.0623 25.297 69.9154 24.1138 69.64L27.0122 81.6185C27.269 81.6185 27.5258 81.6368 27.7827 81.6368C36.7256 81.6368 44.6963 77.3778 49.7777 70.7874C46.1547 66.097 43.99 60.2133 43.99 53.834C43.99 62.7834 36.7164 70.0623 27.7827 70.0623Z" fill="white"/>
</mask>
<g mask="url(#mask0_12_288)">
<path d="M44.5169 43.4766L12.9021 59.5273L29.3645 92.0001L60.9794 75.9493L44.5169 43.4766Z" fill="url(#paint1_linear_12_288)"/>
</g>
<mask id="mask1_12_288" style="mask-type:luminance" maskUnits="userSpaceOnUse" x="49" y="10" width="23" height="44">
<path d="M67.7187 10.9229C67.4802 11.1524 61.8117 16.7515 56.0974 24.5995C53.5384 28.115 51.3737 31.5204 49.6218 34.7789C53.0247 41.0297 55.5563 47.7211 55.5563 53.8251C55.5563 44.2974 64.7102 31.6397 71.3233 24.012L67.8287 10.7944L67.7095 10.9138L67.7187 10.9229Z" fill="white"/>
</mask>
<g mask="url(#mask1_12_288)">
<path d="M59.4285 0.00106453L28.2346 34.416L61.5376 64.6458L92.7315 30.2309L59.4285 0.00106453Z" fill="url(#paint2_linear_12_288)"/>
</g>
<path d="M127.907 69.5669H128.98L125.816 78.0574H125.458L122.816 71.4302L120.175 78.0574H119.817L116.643 69.5669H117.735L120.037 75.9279L122.642 69.4292H123L125.605 75.9187L127.907 69.5669Z" fill="#00283A"/>
<path d="M142.821 77.9104L142.115 76.2123H138.024L137.317 77.9104H136.281L139.895 69.4199H140.262L143.876 77.9104H142.83H142.821ZM141.729 75.3311L140.06 71.219L138.391 75.3311H141.729Z" fill="#00283A"/>
<path d="M153.754 77.9105V70.4481H150.819V69.5669H157.68V70.4481H154.736V77.9105H153.754Z" fill="#00283A"/>
<path d="M165.403 77.9104V69.5576H170.75V70.4388H166.393V72.9905H169.732V73.8717H166.393V77.0109H170.906V77.892H165.412L165.403 77.9104Z" fill="#00283A"/>
<path d="M185.38 77.9104H184.234L181.638 74.4041H179.858V77.9104H178.877V69.5576H181.812C182.61 69.5576 183.261 69.7871 183.747 70.2369C184.234 70.6866 184.481 71.2649 184.481 71.9717C184.481 72.5408 184.325 73.0272 184.013 73.4311C183.702 73.8442 183.27 74.1287 182.72 74.2847L185.389 77.9012L185.38 77.9104ZM179.858 70.448V73.5229H181.766C182.298 73.5229 182.711 73.3852 183.004 73.1098C183.298 72.8345 183.445 72.4673 183.445 71.99C183.445 71.5127 183.298 71.1547 182.995 70.8702C182.693 70.5857 182.289 70.448 181.766 70.448H179.858Z" fill="#00283A"/>
<path d="M204.935 77.9105V70.4481H202V69.5669H208.861V70.4481H205.917V77.9105H204.935Z" fill="#00283A"/>
<path d="M216.575 77.9104V69.5576H221.922V70.4388H217.565V72.9905H220.904V73.8717H217.565V77.0109H222.078V77.892H216.584L216.575 77.9104Z" fill="#00283A"/>
<path d="M229.508 73.743C229.48 72.5589 229.902 71.5309 230.764 70.6864C231.626 69.8328 232.654 69.4197 233.846 69.4381C234.58 69.4381 235.249 69.5941 235.864 69.9154C236.479 70.2366 236.955 70.6772 237.313 71.228L236.579 71.8062C235.901 70.8241 234.993 70.3376 233.864 70.3376C232.92 70.3376 232.131 70.6589 231.498 71.3106C230.865 71.9623 230.544 72.77 230.544 73.743C230.544 74.7159 230.865 75.5237 231.498 76.1754C232.131 76.8271 232.92 77.1484 233.864 77.1484C234.993 77.1484 235.901 76.6619 236.579 75.6797L237.313 76.258C236.955 76.8179 236.479 77.2493 235.864 77.5706C235.249 77.8918 234.58 78.0479 233.846 78.0479C232.654 78.0662 231.636 77.644 230.764 76.7996C229.902 75.9459 229.48 74.9271 229.508 73.743Z" fill="#00283A"/>
<path d="M245.412 77.9104V69.5576H246.394V72.9997H251.072V69.5576H252.053V77.9104H251.072V73.8901H246.394V77.9104H245.412Z" fill="#00283A"/>
<path d="M266.343 69.5669H267.325V78.0574H266.967L261.656 71.6597V77.9197H260.675V69.4292H261.033L266.343 75.8452V69.5761V69.5669Z" fill="#00283A"/>
<path d="M275.406 73.743C275.378 72.5589 275.8 71.5309 276.653 70.6864C277.515 69.8328 278.533 69.4197 279.726 69.4381C280.909 69.4197 281.927 69.842 282.798 70.6864C283.67 71.5401 284.092 72.5589 284.064 73.743C284.092 74.9362 283.67 75.9551 282.798 76.7996C281.927 77.6532 280.909 78.0662 279.726 78.0479C278.542 78.0754 277.524 77.6532 276.662 76.7996C275.8 75.9367 275.378 74.9179 275.406 73.743ZM283.037 73.7338C283.055 72.7884 282.734 71.9806 282.092 71.3198C281.441 70.6497 280.661 70.3284 279.744 70.3468C278.799 70.3468 278.01 70.6681 277.378 71.3106C276.745 71.9531 276.433 72.7608 276.433 73.7338C276.433 74.7068 276.745 75.5145 277.378 76.1662C278.01 76.8179 278.799 77.1484 279.744 77.1484C280.661 77.1667 281.45 76.8363 282.092 76.1662C282.743 75.4962 283.055 74.6884 283.037 73.7338Z" fill="#00283A"/>
<path d="M292.136 77.9104V69.5576H293.117V77.0201H297.07V77.9012H292.126L292.136 77.9104Z" fill="#00283A"/>
<path d="M304.316 73.743C304.289 72.5589 304.711 71.5309 305.564 70.6864C306.426 69.8328 307.444 69.4197 308.637 69.4381C309.82 69.4197 310.838 69.842 311.709 70.6864C312.581 71.5401 313.003 72.5589 312.975 73.743C313.003 74.9362 312.581 75.9551 311.709 76.7996C310.838 77.6532 309.82 78.0662 308.637 78.0479C307.453 78.0754 306.435 77.6532 305.573 76.7996C304.711 75.9367 304.289 74.9179 304.316 73.743ZM311.948 73.7338C311.966 72.7884 311.645 71.9806 311.003 71.3198C310.352 70.6497 309.572 70.3284 308.655 70.3468C307.71 70.3468 306.921 70.6681 306.288 71.3106C305.656 71.9531 305.344 72.7608 305.344 73.7338C305.344 74.7068 305.656 75.5145 306.288 76.1662C306.921 76.8179 307.71 77.1484 308.655 77.1484C309.572 77.1667 310.361 76.8363 311.003 76.1662C311.654 75.4962 311.966 74.6884 311.948 73.7338Z" fill="#00283A"/>
<path d="M320.505 73.7434C320.487 72.5501 320.909 71.5221 321.762 70.6776C322.615 69.8332 323.642 69.4109 324.844 69.4293C325.541 69.4293 326.192 69.5761 326.779 69.879C327.366 70.182 327.862 70.595 328.247 71.1366L327.504 71.7148C326.825 70.7969 325.935 70.338 324.853 70.338C323.908 70.3196 323.12 70.6501 322.477 71.311C321.835 71.9718 321.524 72.7796 321.542 73.725C321.524 74.6888 321.845 75.5057 322.496 76.1758C323.147 76.855 323.954 77.1763 324.908 77.1671C325.504 77.1671 326.045 77.0386 326.532 76.7724C327.018 76.5062 327.403 76.1391 327.687 75.6801V74.5511H324.844V73.6699H328.678V75.9004C328.311 76.5613 327.779 77.0845 327.1 77.4792C326.431 77.8647 325.688 78.0574 324.862 78.0574C323.67 78.0758 322.643 77.6627 321.78 76.8091C320.927 75.9647 320.505 74.9366 320.524 73.7434H320.505Z" fill="#00283A"/>
<path d="M336.795 77.9104V69.5576H337.777V77.9104H336.795Z" fill="#00283A"/>
<path d="M346.389 77.9104V69.5576H351.737V70.4388H347.38V72.9905H350.719V73.8717H347.38V77.0109H351.893V77.892H346.399L346.389 77.9104Z" fill="#00283A"/>
<path d="M359.231 76.2584L359.965 75.7168C360.588 76.6714 361.359 77.1487 362.294 77.1487C362.799 77.1487 363.202 77.0202 363.514 76.7724C363.826 76.5154 363.973 76.185 363.973 75.7627C363.973 75.4048 363.872 75.1386 363.679 74.955C363.477 74.7714 363.12 74.5511 362.588 74.2941L361.652 73.8535C361.019 73.5598 360.552 73.2385 360.24 72.9081C359.928 72.5685 359.772 72.1371 359.772 71.6139C359.772 70.9713 360.02 70.4482 360.506 70.0443C360.992 69.6404 361.588 69.4385 362.285 69.4385C362.835 69.4385 363.34 69.567 363.798 69.824C364.257 70.081 364.624 70.4206 364.908 70.852L364.184 71.3936C363.716 70.696 363.074 70.3472 362.276 70.3472C361.854 70.3472 361.505 70.4573 361.221 70.6776C360.937 70.8979 360.799 71.1916 360.799 71.5588C360.799 71.8066 360.854 72.0086 360.964 72.1646C361.065 72.3206 361.194 72.44 361.359 72.5409C361.515 72.6419 361.781 72.7796 362.138 72.9632L363.065 73.4038C363.743 73.7434 364.239 74.083 364.551 74.4318C364.862 74.7806 365.009 75.212 365.009 75.7352C365.009 76.4144 364.752 76.9743 364.248 77.4149C363.743 77.8555 363.101 78.0666 362.313 78.0666C361.671 78.0666 361.083 77.9106 360.542 77.5893C360.001 77.2772 359.57 76.8367 359.24 76.2676L359.231 76.2584Z" fill="#00283A"/>
<path d="M116.093 55.3304V16.3936H125.458L143.353 46.8216L161.275 16.3936H170.613V55.3304H162.972V28.5464L147.214 55.3304H139.491L123.733 28.5464V55.3304H116.093Z" fill="#00283A"/>
<path d="M177.29 55.3304V16.3936H218.419V24.0396H184.931V32.0527H218.419V39.6988H184.931V47.6752H218.419V55.3212H177.29V55.3304Z" fill="#00283A"/>
<path d="M235.956 55.3303C234.314 55.3303 232.791 55.0549 231.37 54.495C229.92 53.9351 228.646 53.1365 227.591 52.0443C226.508 50.9887 225.701 49.7128 225.142 48.2626C224.582 46.849 224.307 45.3161 224.307 43.6731H231.948C231.948 44.5635 232.113 45.7843 232.975 46.6471C233.837 47.5099 235.057 47.6751 235.947 47.6751H258.263C259.152 47.6751 260.372 47.5099 261.234 46.6471C262.097 45.7843 262.262 44.5635 262.262 43.6731C262.262 42.7828 262.097 41.5895 261.234 40.7267C260.372 39.8639 259.152 39.6987 258.263 39.6987H235.947C234.305 39.6987 232.782 39.4233 231.36 38.8634C229.911 38.3035 228.636 37.4774 227.582 36.4126C226.499 35.3295 225.692 34.0445 225.133 32.6034C224.573 31.1806 224.298 29.6569 224.298 28.0415C224.298 26.426 224.573 24.8747 225.133 23.452C225.692 22.0018 226.49 20.7259 227.582 19.6703C228.636 18.5872 229.911 17.7795 231.36 17.2196C232.782 16.6596 234.305 16.3843 235.947 16.3843H258.263C259.904 16.3843 261.427 16.6596 262.849 17.2196C264.298 17.7795 265.573 18.578 266.628 19.6703C267.71 20.7259 268.517 22.0018 269.077 23.452C269.636 24.8656 269.911 26.3984 269.911 28.0415H262.271C262.271 27.1511 262.106 25.9303 261.244 25.0675C260.381 24.2322 259.162 24.0395 258.272 24.0395H235.956C235.066 24.0395 233.846 24.2322 232.984 25.0675C232.122 25.9303 231.957 27.1511 231.957 28.0415C231.957 28.9318 232.122 30.1251 232.984 30.9879C233.846 31.8507 235.066 32.0435 235.956 32.0435H258.272C259.914 32.0435 261.436 32.2913 262.858 32.8512C264.307 33.4111 265.582 34.2372 266.637 35.302C267.719 36.3851 268.526 37.6701 269.086 39.1112C269.645 40.5339 269.921 42.0576 269.921 43.6731C269.921 45.2886 269.645 46.8398 269.086 48.2626C268.526 49.7128 267.728 50.9887 266.637 52.0443C265.582 53.1274 264.307 53.9351 262.858 54.495C261.436 55.0549 259.914 55.3303 258.272 55.3303H235.956Z" fill="#00283A"/>
<path d="M271.59 55.3304L291.741 16.3936H299.749L319.9 55.3304H311.287L308.398 49.7405H283.11L280.221 55.3304H271.608H271.59ZM287.045 42.0944H304.417L295.75 25.2971L287.054 42.0944H287.045Z" fill="#00283A"/>
<path d="M324.899 55.3304V16.3936H332.539V47.6844H364.917V55.3304H324.899Z" fill="#00283A"/>
</g>
<defs>
<linearGradient id="paint0_linear_12_288" x1="0" y1="44.233" x2="99.5555" y2="44.233" gradientUnits="userSpaceOnUse">
<stop stop-color="#00A4FF"/>
<stop offset="1" stop-color="#0071BC"/>
</linearGradient>
<linearGradient id="paint1_linear_12_288" x1="34.4478" y1="59.2003" x2="51.625" y2="50.4921" gradientUnits="userSpaceOnUse">
<stop stop-opacity="0"/>
<stop offset="0.68" stop-color="#001729" stop-opacity="0.23"/>
<stop offset="0.76" stop-color="#002541" stop-opacity="0.36"/>
<stop offset="0.84" stop-color="#00365F" stop-opacity="0.53"/>
<stop offset="0.92" stop-color="#004B82" stop-opacity="0.72"/>
<stop offset="0.98" stop-color="#0062AA" stop-opacity="0.94"/>
<stop offset="1" stop-color="#0168B5"/>
</linearGradient>
<linearGradient id="paint2_linear_12_288" x1="71.8558" y1="21.9295" x2="54.6832" y2="37.6038" gradientUnits="userSpaceOnUse">
<stop offset="0.755" stop-opacity="0"/>
<stop offset="1" stop-color="#032B4A" stop-opacity="0.3"/>
</linearGradient>
<clipPath id="clip0_12_288">
<rect width="365" height="92" fill="white"/>
</clipPath>
</defs>
</svg>
