<svg width="331" height="84" viewBox="0 0 331 84" fill="none" xmlns="http://www.w3.org/2000/svg">
<g clip-path="url(#clip0_12_172)">
<path d="M68.874 10.0846L65.2052 6.23297L61.4234 9.98103C61.2076 10.1985 56.0693 15.3029 50.8899 22.4677C48.5674 25.6773 46.6148 28.7834 45.0219 31.7653C39.1642 20.9457 30.4291 11.5859 28.9904 10.0846L25.3113 6.23297L21.5295 9.98103C21.3137 10.1985 16.1754 15.3029 10.996 22.4677C3.69959 32.5419 0 41.5186 0 49.1596C0 63.1579 11.3043 74.547 25.1983 74.547C33.3066 74.547 40.531 70.6644 45.1452 64.6385C49.7594 70.654 56.9839 74.547 65.0922 74.547C78.9862 74.547 90.2905 63.1579 90.2905 49.1596C90.2905 33.0078 71.0732 12.3935 68.8843 10.0949M25.1983 63.9655C17.09 63.9655 10.4924 57.3184 10.4924 49.1493C10.4924 40.3072 19.0837 28.4832 25.1058 21.5669C31.169 28.7834 39.8939 40.9698 39.8939 49.1493C39.8939 57.3287 33.2963 63.9655 25.188 63.9655M65.0819 63.9655C56.9736 63.9655 50.376 57.3184 50.376 49.1493C50.376 40.3072 58.9673 28.4832 64.9894 21.5669C71.0526 28.7834 79.7775 40.9698 79.7775 49.1493C79.7775 57.3287 73.1799 63.9655 65.0716 63.9655" fill="white"/>
<mask id="mask0_12_172" style="mask-type:luminance" maskUnits="userSpaceOnUse" x="21" y="49" width="24" height="27">
<path d="M24.9002 64.5039C23.7595 64.5039 22.6496 64.3693 21.5808 64.1208L24.2116 75.0647C24.448 75.0647 24.6741 75.0854 24.9104 75.0854C33.0187 75.0854 40.2432 71.2028 44.8574 65.1769C41.5689 60.8904 39.606 55.5272 39.606 49.698C39.606 57.8671 33.0084 64.5143 24.9002 64.5143" fill="white"/>
</mask>
<g mask="url(#mask0_12_172)">
<path d="M40.0906 40.2282L11.4143 54.8857L26.3439 84.5343L55.0201 69.8768L40.0906 40.2282Z" fill="url(#paint0_linear_12_172)"/>
</g>
<mask id="mask1_12_172" style="mask-type:luminance" maskUnits="userSpaceOnUse" x="45" y="9" width="20" height="41">
<path d="M61.4132 9.98104C61.1974 10.1985 56.0591 15.3029 50.8797 22.4677C48.5572 25.6773 46.6046 28.7835 45.0117 31.7653C48.105 37.4703 50.3967 43.579 50.3967 49.1596C50.3967 40.4625 58.7002 28.9077 64.7017 21.9396L61.5365 9.8775L61.4235 9.98104H61.4132Z" fill="white"/>
</mask>
<g mask="url(#mask1_12_172)">
<path d="M53.8809 0.0087958L25.5938 31.4283L55.7973 59.0303L84.0844 27.6109L53.8809 0.0087958Z" fill="url(#paint1_linear_12_172)"/>
</g>
<path d="M115.993 63.5099H116.969L114.102 71.2545H113.783L111.389 65.2079L108.994 71.2545H108.676L105.798 63.5099H106.785L108.871 69.3184L111.234 63.3857H111.553L113.917 69.308L116.003 63.5099H115.993Z" fill="white"/>
<path d="M129.517 71.1303L128.879 69.5772H125.169L124.532 71.1303H123.597L126.875 63.3857H127.204L130.483 71.1303H129.527H129.517ZM128.53 68.7696L127.019 65.0216L125.509 68.7696H128.53Z" fill="white"/>
<path d="M139.434 71.1303V64.3175H136.772V63.5099H143V64.3175H140.328V71.1303H139.434Z" fill="white"/>
<path d="M149.998 71.1303V63.5099H154.848V64.3175H150.892V66.6471H153.913V67.4547H150.892V70.3227H154.982V71.1303H149.998Z" fill="white"/>
<path d="M168.116 71.1303H167.067L164.714 67.931H163.101V71.1303H162.207V63.5099H164.868C165.598 63.5099 166.184 63.717 166.625 64.1311C167.067 64.5453 167.293 65.0733 167.293 65.7153C167.293 66.233 167.15 66.6782 166.872 67.0509C166.584 67.4236 166.204 67.6825 165.701 67.8274L168.116 71.1303ZM163.111 64.3175V67.1234H164.837C165.32 67.1234 165.69 66.9991 165.958 66.7506C166.225 66.5022 166.358 66.1605 166.358 65.7256C166.358 65.2908 166.225 64.9594 165.947 64.7006C165.68 64.4418 165.3 64.3175 164.827 64.3175H163.101H163.111Z" fill="white"/>
<path d="M185.853 71.1303V64.3175H183.191V63.5099H189.419V64.3175H186.747V71.1303H185.853Z" fill="white"/>
<path d="M196.407 71.1303V63.5099H201.258V64.3175H197.301V66.6471H200.323V67.4547H197.301V70.3227H201.391V71.1303H196.407Z" fill="white"/>
<path d="M208.133 67.3201C208.112 66.233 208.493 65.3011 209.274 64.5246C210.055 63.7481 210.99 63.365 212.069 63.3857C212.737 63.3857 213.343 63.5306 213.898 63.8205C214.453 64.1104 214.885 64.5142 215.213 65.0216L214.545 65.5496C213.929 64.6592 213.107 64.214 212.079 64.214C211.226 64.214 210.507 64.5142 209.931 65.1044C209.356 65.6946 209.068 66.44 209.068 67.3201C209.068 68.2002 209.356 68.9457 209.931 69.5358C210.507 70.126 211.226 70.4262 212.079 70.4262C213.107 70.4262 213.929 69.981 214.545 69.0906L215.213 69.6186C214.895 70.126 214.453 70.5298 213.898 70.8197C213.343 71.1096 212.737 71.2545 212.069 71.2545C210.99 71.2649 210.065 70.8922 209.274 70.1156C208.493 69.3391 208.112 68.4072 208.133 67.3201Z" fill="white"/>
<path d="M222.551 71.1303V63.5099H223.445V66.6471H227.689V63.5099H228.583V71.1303H227.689V67.4547H223.445V71.1303H222.551Z" fill="white"/>
<path d="M241.532 63.5099H242.426V71.2545H242.107L237.298 65.415V71.1303H236.404V63.3857H236.722L241.532 69.2459V63.5203V63.5099Z" fill="white"/>
<path d="M249.753 67.3201C249.733 66.233 250.113 65.3011 250.884 64.5246C251.654 63.7481 252.59 63.365 253.669 63.3857C254.737 63.3753 255.662 63.7481 256.454 64.5246C257.245 65.3011 257.625 66.233 257.605 67.3201C257.625 68.4072 257.245 69.3391 256.454 70.1156C255.662 70.8922 254.737 71.2752 253.669 71.2545C252.6 71.2752 251.675 70.8922 250.894 70.1156C250.113 69.3287 249.733 68.3969 249.753 67.3201ZM256.68 67.3098C256.69 66.4504 256.412 65.7153 255.816 65.1044C255.231 64.4935 254.522 64.2036 253.689 64.214C252.836 64.214 252.117 64.5142 251.541 65.0941C250.966 65.6842 250.678 66.4193 250.678 67.3098C250.678 68.2002 250.966 68.9353 251.541 69.5358C252.117 70.1363 252.826 70.4262 253.689 70.4262C254.522 70.4469 255.231 70.1467 255.816 69.5358C256.402 68.9249 256.69 68.1795 256.68 67.3098Z" fill="white"/>
<path d="M264.932 71.1303V63.5099H265.826V70.3227H269.412V71.1303H264.932Z" fill="white"/>
<path d="M275.969 67.3201C275.948 66.233 276.328 65.3011 277.099 64.5246C277.87 63.7481 278.805 63.365 279.884 63.3857C280.953 63.3753 281.878 63.7481 282.669 64.5246C283.46 65.3011 283.841 66.233 283.82 67.3201C283.841 68.4072 283.46 69.3391 282.669 70.1156C281.878 70.8922 280.953 71.2752 279.884 71.2545C278.815 71.2752 277.891 70.8922 277.109 70.1156C276.328 69.3287 275.948 68.3969 275.969 67.3201ZM282.895 67.3098C282.906 66.4504 282.628 65.7153 282.032 65.1044C281.446 64.4935 280.737 64.2036 279.905 64.214C279.052 64.214 278.332 64.5142 277.757 65.0941C277.181 65.6842 276.894 66.4193 276.894 67.3098C276.894 68.2002 277.181 68.9353 277.757 69.5358C278.332 70.1363 279.042 70.4262 279.905 70.4262C280.737 70.4469 281.446 70.1467 282.032 69.5358C282.618 68.9249 282.906 68.1795 282.895 67.3098Z" fill="white"/>
<path d="M290.654 67.3201C290.633 66.2226 291.014 65.2908 291.795 64.5142C292.565 63.7377 293.501 63.365 294.59 63.3753C295.227 63.3753 295.813 63.5099 296.347 63.7895C296.882 64.0587 297.324 64.4418 297.673 64.9388L296.995 65.4668C296.378 64.6281 295.577 64.2036 294.59 64.2036C293.737 64.1933 293.018 64.4832 292.432 65.0941C291.846 65.7049 291.569 66.44 291.579 67.2994C291.558 68.1795 291.856 68.9249 292.442 69.5358C293.038 70.1467 293.758 70.4469 294.621 70.4366C295.165 70.4366 295.659 70.3123 296.09 70.0742C296.522 69.8361 296.882 69.4944 297.139 69.0803V68.0552H294.559V67.2476H298.033V69.277C297.694 69.8775 297.221 70.3538 296.604 70.7161C295.998 71.0682 295.32 71.2442 294.58 71.2442C293.49 71.2545 292.565 70.8818 291.784 70.1053C291.014 69.3287 290.633 68.3969 290.644 67.2994L290.654 67.3201Z" fill="white"/>
<path d="M305.422 71.1303V63.5099H306.316V71.1303H305.422Z" fill="white"/>
<path d="M314.126 71.1303V63.5099H318.977V64.3175H315.02V66.6471H318.041V67.4547H315.02V70.3227H319.11V71.1303H314.126Z" fill="white"/>
<path d="M325.769 69.6186L326.437 69.1217C327.002 69.9914 327.701 70.4262 328.544 70.4262C329.006 70.4262 329.366 70.3124 329.654 70.0846C329.931 69.8568 330.075 69.5462 330.075 69.1631C330.075 68.8421 329.983 68.5936 329.808 68.428C329.633 68.2623 329.294 68.0552 328.821 67.8171L327.969 67.4133C327.393 67.1441 326.972 66.8542 326.684 66.5436C326.396 66.233 326.263 65.8395 326.263 65.3633C326.263 64.7731 326.489 64.2968 326.931 63.9344C327.372 63.5617 327.917 63.3753 328.544 63.3753C329.037 63.3753 329.5 63.4892 329.911 63.7274C330.332 63.9655 330.661 64.2761 330.918 64.6696L330.26 65.1665C329.829 64.5246 329.253 64.2036 328.534 64.2036C328.153 64.2036 327.835 64.3072 327.578 64.5039C327.321 64.7006 327.198 64.9698 327.198 65.3115C327.198 65.5393 327.249 65.7153 327.352 65.8706C327.444 66.0052 327.557 66.1294 327.712 66.2123C327.855 66.3054 328.092 66.4297 328.421 66.5954L329.253 66.9991C329.87 67.3098 330.322 67.6204 330.599 67.931C330.877 68.2416 331.021 68.6454 331.021 69.1217C331.021 69.7429 330.795 70.2502 330.332 70.654C329.87 71.0475 329.284 71.2545 328.575 71.2545C327.989 71.2545 327.455 71.1096 326.972 70.8197C326.478 70.5298 326.088 70.126 325.79 69.6083L325.769 69.6186Z" fill="white"/>
<path d="M105.274 50.516V14.9715H113.762L129.989 42.7507L146.247 14.9715H154.715V50.516H147.788V26.0604L133.504 50.516H126.495L112.211 26.0604V50.516H105.284H105.274Z" fill="white"/>
<path d="M160.778 50.516V14.9715H198.072V21.95H167.705V29.2597H198.072V36.2381H167.705V43.5272H198.072V50.5056H160.778V50.516Z" fill="white"/>
<path d="M213.98 50.516C212.49 50.516 211.103 50.2571 209.818 49.7498C208.503 49.2425 207.352 48.5073 206.386 47.5134C205.399 46.5505 204.67 45.3805 204.166 44.0552C203.662 42.761 203.406 41.3632 203.406 39.862H210.332C210.332 40.6695 210.486 41.7878 211.267 42.5746C212.048 43.3615 213.158 43.5168 213.96 43.5168H234.194C234.996 43.5168 236.106 43.3615 236.887 42.5746C237.668 41.7878 237.822 40.6695 237.822 39.862C237.822 39.0544 237.668 37.9569 236.887 37.17C236.106 36.3831 234.996 36.2278 234.194 36.2278H213.96C212.47 36.2278 211.082 35.9689 209.798 35.4616C208.482 34.9543 207.331 34.1881 206.365 33.2252C205.379 32.2312 204.649 31.0716 204.145 29.7463C203.642 28.4521 203.385 27.0544 203.385 25.5841C203.385 24.1139 203.642 22.6851 204.145 21.3909C204.649 20.0656 205.379 18.906 206.365 17.9327C207.321 16.9387 208.482 16.2036 209.798 15.6963C211.082 15.189 212.47 14.9301 213.96 14.9301H234.194C235.684 14.9301 237.072 15.189 238.356 15.6963C239.672 16.2036 240.823 16.9387 241.789 17.9327C242.775 18.8956 243.505 20.0656 244.009 21.3909C244.512 22.6851 244.769 24.0828 244.769 25.5841H237.843C237.843 24.7765 237.688 23.6583 236.907 22.8714C236.126 22.1053 235.016 21.9293 234.215 21.9293H213.98C213.179 21.9293 212.069 22.1053 211.288 22.8714C210.507 23.6583 210.353 24.7765 210.353 25.5841C210.353 26.3917 210.507 27.4892 211.288 28.2761C212.069 29.063 213.179 29.239 213.98 29.239H234.215C235.705 29.239 237.092 29.4668 238.377 29.9741C239.692 30.4815 240.843 31.2476 241.809 32.2105C242.796 33.2045 243.526 34.3641 244.029 35.6894C244.533 36.9836 244.79 38.3814 244.79 39.8516C244.79 41.3218 244.533 42.7507 244.029 44.0449C243.526 45.3702 242.796 46.5298 241.809 47.503C240.854 48.497 239.692 49.2321 238.377 49.7394C237.092 50.2468 235.705 50.5056 234.215 50.5056H213.98V50.516Z" fill="white"/>
<path d="M246.29 50.516L264.562 14.9715H271.817L290.089 50.516H282.279L279.658 45.4116H256.721L254.1 50.516H246.29ZM260.297 38.4331H276.051L268.189 23.0992L260.297 38.4331Z" fill="white"/>
<path d="M294.631 50.516V14.9715H301.558V43.5375H330.918V50.516H294.631Z" fill="white"/>
</g>
<defs>
<linearGradient id="paint0_linear_12_172" x1="42.226" y1="71.7812" x2="57.7369" y2="63.9707" gradientUnits="userSpaceOnUse">
<stop stop-opacity="0"/>
<stop offset="0.84" stop-color="#00365F" stop-opacity="0.53"/>
<stop offset="0.92" stop-color="#004B82" stop-opacity="0.72"/>
<stop offset="0.98" stop-color="#0062AA" stop-opacity="0.94"/>
<stop offset="1" stop-color="#0168B5"/>
</linearGradient>
<linearGradient id="paint1_linear_12_172" x1="65.1638" y1="20.025" x2="49.4889" y2="34.2276" gradientUnits="userSpaceOnUse">
<stop offset="0.71" stop-opacity="0"/>
<stop offset="1" stop-opacity="0.2"/>
</linearGradient>
<clipPath id="clip0_12_172">
<rect width="331" height="84" fill="white"/>
</clipPath>
</defs>
</svg>
