<svg xmlns="http://www.w3.org/2000/svg" xml:space="preserve" id="Layer_1" x="0" y="0" version="1.1" viewBox="0 0 32 32"><style>.st1{fill:#00b1ed}</style><circle cx="16" cy="16" r="16" fill="#fff"/><path d="M28.08 15.14c-.08-.97-.32-1.69-.43-1.99-.41-1.1-.98-1.82-1.14-2.03-.13-.16-.74-.88-1.78-1.53-.64-.39-.75-.41-1.3-.63-.12-.04-.8-.19-1.34-.24-.36-.04-.6-.05-.89-.2-.23-.12-.38-.27-.48-.38-1.76 0-3.52.01-5.27.01l-4.18-.03a.854.854 0 0 1-.41.39c-.12.05-.22.05-.31.05-.23.01-.46.07-.68.09-.38.07-1.09.25-1.75.55-.91.4-1.52.89-1.69 1.03-.3.25-1.31 1.13-1.96 2.68-.14.33-.54 1.35-.56 2.74-.04 1.93.67 3.31.84 3.61.7 1.31 1.61 2.03 1.81 2.18.92.71 1.85 1.01 2.47 1.2.5.16.92.25 1.23.31.19.07.34.16.44.23.14.09.39.27.56.59.02.04.04.07.05.1h9.25c.11-.12.27-.29.5-.46.23-.16.44-.26.71-.37.51-.21.85-.32 1.09-.41.65-.23 1.13-.47 1.46-.63.61-.3.91-.45 1.27-.71.23-.17.68-.54 1.11-1.11.37-.5.56-.92.74-1.34.15-.33.38-.87.53-1.62.06-.35.19-1.11.11-2.08zm-7.16 6.12c-2.14 0-3.99-1.21-4.92-2.99a5.54 5.54 0 1 1-4.92-8.09c2.14 0 3.99 1.21 4.92 2.99a5.54 5.54 0 1 1 4.92 8.09z"/><path d="M11.96 10.63c.02.19.07.51.27.87.21.38.48.59.59.68.13.09.45.33.94.39.12.01.43.04.81-.08.15-.05.26-.1.35-.15.32.56.63 1.12.95 1.68-.09.09-.22.23-.36.41-.23.3-.38.49-.48.78-.14.44-.07.82-.04.94.07.34.22.57.35.76.19.29.4.49.54.62-.32.53-.64 1.07-.96 1.6-.11-.04-.28-.1-.49-.13a2.22 2.22 0 0 0-.99.02c-.34.1-.56.27-.68.36-.13.1-.42.33-.62.75-.14.29-.18.55-.19.72l-1.9-.03c-.02-.17-.08-.43-.22-.71-.2-.41-.47-.65-.53-.7a1.83 1.83 0 0 0-.8-.43c-.26-.04-.48-.01-.73.02-.28.04-.51.11-.67.17-.32-.54-.64-1.09-.96-1.63.19-.14.65-.51.85-1.14.11-.34.11-.65.1-.81 0-.19-.01-.35-.08-.55-.05-.13-.12-.23-.3-.45-.14-.16-.33-.38-.57-.63.31-.55.62-1.1.93-1.64a2.174 2.174 0 0 0 1.98-.04c.26-.15.42-.31.46-.35.23-.25.33-.49.38-.62.1-.25.13-.48.14-.66.64-.01 1.29-.01 1.93-.02zm-1.02 3.23c-1.01 0-1.84.82-1.84 1.84s.82 1.84 1.84 1.84 1.84-.82 1.84-1.84-.82-1.84-1.84-1.84z" class="st1"/><path d="M25.84 15.28c-.1-.47-.43-.75-.56-.85-.31-.24-.64-.27-.91-.31-.29-.03-.53-.01-.7.01-.06-.06-.12-.12-.18-.17a7.25 7.25 0 0 1-.54-.57.524.524 0 0 1-.11-.19c-.02-.07-.02-.13-.02-.18 0 0 0-.14-.02-.4-.01-.15-.05-.26-.1-.41-.26-.76-.69-1.14-.69-1.14-.4-.35-.82-.45-1.03-.5-.26-.06-.49-.11-.77-.04-.4.11-.63.4-.72.52-.24.31-.31.62-.36.88a2.8 2.8 0 0 0-.03.9c-.3.28-.6.57-.9.85-.16-.03-.39-.06-.67-.02-.36.05-.61.17-.7.21-.33.17-.53.4-.63.51-.21.24-.31.46-.37.59-.2.43-.24.79-.25.91-.02.23-.03.37.03.55.1.29.33.45.47.55.24.17.47.22.79.3.23.05.54.11.93.12.15.14.3.29.45.44.17.16.35.32.52.47-.02.13-.04.32-.02.53.01.11.03.37.14.66.2.52.58.82.75.95.36.28.71.39.85.42.25.07.54.15.89.04.25-.07.42-.21.52-.3.06-.08.12-.16.17-.24a6.24 6.24 0 0 0 .35-1.85c.09-.08.17-.16.26-.24.2-.19.38-.38.55-.57a2.131 2.131 0 0 0 1.51-.3c.15-.09.48-.29.76-.69.23-.34.31-.66.34-.78.01-.17.06-.39 0-.66zm-5.06 2.29c-1.03 0-1.86-.83-1.86-1.86 0-1.03.83-1.86 1.86-1.86s1.86.83 1.86 1.86c0 1.03-.83 1.86-1.86 1.86z"/><path d="M15.44 8.16c-.98-.01-1.96-.01-2.94-.02v2.23c1.52.4 2.79 1.43 3.5 2.8.71-1.37 1.98-2.4 3.5-2.8V8.15c-1.35.01-2.71.01-4.06.01zm2.16 15.7v-3.7a5.41 5.41 0 0 1-1.6-1.89c-.39.74-.94 1.39-1.6 1.89v3.7h3.2z" class="st1"/></svg>