<svg width="42" height="38" viewBox="0 0 42 38" fill="none" xmlns="http://www.w3.org/2000/svg">
<path d="M35.7778 36H6.22222C5.10242 36 4.02848 35.5522 3.23666 34.7552C2.44484 33.9582 2 32.8772 2 31.75V6.25C2 5.12283 2.44484 4.04183 3.23666 3.2448C4.02848 2.44777 5.10242 2 6.22222 2H27.3333C28.4531 2 29.5271 2.44777 30.3189 3.2448C31.1107 4.04183 31.5556 5.12283 31.5556 6.25V8.375M35.7778 36C34.658 36 33.584 35.5522 32.7922 34.7552C32.0004 33.9582 31.5556 32.8772 31.5556 31.75V8.375M35.7778 36C36.8976 36 37.9715 35.5522 38.7633 34.7552C39.5552 33.9582 40 32.8772 40 31.75V12.625C40 11.4978 39.5552 10.4168 38.7633 9.6198C37.9715 8.82277 36.8976 8.375 35.7778 8.375H31.5556M23.1111 2H14.6667M10.4444 27.5H23.1111M10.4444 10.5H23.1111V19H10.4444V10.5Z" stroke="white" stroke-width="3" stroke-linecap="round" stroke-linejoin="round"/>
</svg>
